<svg xmlns="http://www.w3.org/2000/svg" width="1200" height="630" viewBox="0 0 1200 630">
  <rect width="1200" height="630" fill="#0F172A"/>
  <rect x="0" y="0" width="1200" height="4" fill="#10B981"/>
  <line x1="200" y1="0" x2="200" y2="630" stroke="white" stroke-opacity="0.03" stroke-width="1"/>
  <line x1="400" y1="0" x2="400" y2="630" stroke="white" stroke-opacity="0.03" stroke-width="1"/>
  <line x1="600" y1="0" x2="600" y2="630" stroke="white" stroke-opacity="0.03" stroke-width="1"/>
  <line x1="800" y1="0" x2="800" y2="630" stroke="white" stroke-opacity="0.03" stroke-width="1"/>
  <line x1="1000" y1="0" x2="1000" y2="630" stroke="white" stroke-opacity="0.03" stroke-width="1"/>
  <rect x="80" y="120" width="120" height="36" rx="4" fill="#10B981"/>
  <text x="140" y="144" font-family="Inter, Arial, sans-serif" font-size="13" font-weight="700" fill="white" text-anchor="middle" letter-spacing="1">AIRDROP</text>
  <text x="80" y="220" font-family="Inter, Arial, sans-serif" font-size="44" font-weight="800" fill="white">
    <tspan x="80" dy="0">Hyperliquid Airdrop:</tspan>
    <tspan x="80" dy="58">Coinbase Dukung, Peluang</tspan>
    <tspan x="80" dy="58">Reward Makin Besar</tspan>
  </text>
  <rect x="80" y="414" width="60" height="3" fill="#10B981"/>
  <text x="80" y="444" font-family="Inter, Arial, sans-serif" font-size="18" fill="#94A3B8">
    <tspan x="80" dy="0">Coinbase dukung Hyperliquid, sinyal kuat bahwa</tspan>
    <tspan x="80" dy="28">airdrop Hyperliquid bisa jadi salah satu reward</tspan>
  </text>
  <text x="80" y="560" font-family="Inter, Arial, sans-serif" font-size="16" font-weight="700" fill="#10B981">CryptoSynth.id</text>
  <text x="1120" y="560" font-family="Inter, Arial, sans-serif" font-size="14" fill="#64748B" text-anchor="end">2026-05-15T15:16:37+07:00</text>
  <rect x="1050" y="400" width="120" height="120" rx="8" fill="#10B981" fill-opacity="0.1" transform="rotate(15 1110 460)"/>
</svg>